<svg width="10" height="6" viewBox="0 0 10 6" fill="none" xmlns="http://www.w3.org/2000/svg">
<path d="M9.99995 1.32961C10.0003 1.43634 9.97676 1.5418 9.93103 1.63823C9.8853 1.73466 9.81855 1.81962 9.73569 1.88686L5.45038 5.33748C5.32258 5.44256 5.16228 5.5 4.99685 5.5C4.83142 5.5 4.67112 5.44256 4.54332 5.33748L0.258013 1.76541C0.112158 1.64414 0.0204345 1.46989 0.00302203 1.28098C-0.0143904 1.09207 0.043934 0.903979 0.165164 0.758083C0.286395 0.612188 0.460601 0.52044 0.649459 0.503023C0.838317 0.485606 1.02636 0.543946 1.17221 0.665209L5.00042 3.85864L8.82863 0.772371C8.93347 0.685011 9.06113 0.629517 9.19651 0.612457C9.33189 0.595398 9.46932 0.617485 9.59254 0.676107C9.71576 0.734728 9.81962 0.827431 9.89182 0.943245C9.96402 1.05906 10.0015 1.19314 9.99995 1.32961Z" fill="#EB7119"/>
</svg>
